# xmcd
#
# Track frame offsets:
#	150
#	12400
#	25907
#	37952
#	50715
#	65537
#	83480
#	99457
#	107079
#	118525
#	135212
#
# Disc length: 1913 seconds
#
# Revision: 0
# Processed by: cddbd v1.4PL0 Copyright (c) Steve Scherf et al.
# Submitted via: dBpowerAMP V4.0
#
DISCID=8307770b
DTITLE=Cedell Davis - The Horror Of It All
DYEAR=1900
DGENRE=
TTITLE0=Coon Can Mattie
TTITLE1=Chicken Hawk
TTITLE2=Keep On Snatchin' It Back
TTITLE3=The Horror
TTITLE4=Come Here Baby
TTITLE5=Worried Life
TTITLE6=Cold Chills
TTITLE7=Mistreatin' Me
TTITLE8=I Want You
TTITLE9=If You Like Fat Women
TTITLE10=Tojo Told Hitler
EXTD=Garin Wallace
EXTT0=
EXTT1=
EXTT2=
EXTT3=
EXTT4=
EXTT5=
EXTT6=
EXTT7=
EXTT8=
EXTT9=
EXTT10=
PLAYORDER=
